<svg width="24" height="24" viewBox="0 0 24 24" fill="none" xmlns="http://www.w3.org/2000/svg">
<path d="M14.6507 10.6477C14.9436 10.3549 14.9436 9.87998 14.6507 9.58708C14.3578 9.29419 13.8829 9.29419 13.59 9.58708L11.999 11.1781L10.408 9.58708C10.1151 9.29419 9.64027 9.29419 9.34737 9.58708C9.05448 9.87998 9.05448 10.3549 9.34737 10.6477L10.9384 12.2387L9.34737 13.8297C9.05448 14.1226 9.05448 14.5975 9.34737 14.8904C9.64027 15.1833 10.1151 15.1833 10.408 14.8904L11.999 13.2994L13.59 14.8904C13.8829 15.1833 14.3578 15.1833 14.6507 14.8904C14.9436 14.5975 14.9436 14.1226 14.6507 13.8297L13.0597 12.2387L14.6507 10.6477Z" fill="#5E5959"/>
<path fill-rule="evenodd" clip-rule="evenodd" d="M11.999 1.24609C6.06196 1.24609 1.24902 6.05903 1.24902 11.9961C1.24902 17.9332 6.06196 22.7461 11.999 22.7461C17.9361 22.7461 22.749 17.9332 22.749 11.9961C22.749 6.05903 17.9361 1.24609 11.999 1.24609ZM2.74902 11.9961C2.74902 6.88746 6.89039 2.74609 11.999 2.74609C17.1077 2.74609 21.249 6.88746 21.249 11.9961C21.249 17.1047 17.1077 21.2461 11.999 21.2461C6.89039 21.2461 2.74902 17.1047 2.74902 11.9961Z" fill="#5E5959"/>
</svg>
