<svg width="111" height="30" viewBox="0 0 111 30" fill="none" xmlns="http://www.w3.org/2000/svg">
<path fill-rule="evenodd" clip-rule="evenodd" d="M3.95638 25.4449L1.82079 23.2556L1.80301 23.2375L1.80319 23.2373C1.44576 22.871 1.22559 22.3705 1.22559 21.8182C1.22559 20.6954 2.13561 19.7854 3.25823 19.7854C3.81047 19.7854 4.31109 20.0058 4.67741 20.3631L4.67759 20.3629L4.68399 20.3693L4.7071 20.3924L9.64904 25.3343H9.65284C9.72212 25.4026 9.8173 25.4449 9.92238 25.4449C10.0275 25.4449 10.1226 25.4026 10.1919 25.3343H10.1921L10.1925 25.3339C10.2429 25.284 10.2797 25.2202 10.2964 25.1485L13.6476 19.1695H13.6481C14.4567 17.727 15.9998 16.7521 17.7708 16.7521C19.5422 16.7521 21.0854 17.727 21.894 19.1695H21.8969L24.0986 23.3136L24.1013 23.3187C24.1657 23.4401 24.2935 23.5228 24.4406 23.5228C24.6405 23.5228 24.8044 23.3702 24.8227 23.1752L27.8368 13.4038H27.8374C28.4322 11.4756 30.2279 10.0742 32.3512 10.0742C34.57 10.0742 36.4311 11.6039 36.9384 13.6663H36.9263L39.907 23.2289H39.9069C39.9664 23.4202 39.9987 23.6238 39.9987 23.8347C39.9987 24.9573 39.0887 25.8673 37.9659 25.8673C36.9964 25.8673 36.1856 25.1884 35.9824 24.2804L35.9814 24.2807L32.967 14.6059H32.9668C32.885 14.3437 32.6405 14.1533 32.3514 14.1533C32.0413 14.1533 31.7825 14.3722 31.7208 14.6636L28.6934 24.4552L28.6811 24.4562C28.1108 26.2368 26.4421 27.526 24.472 27.526C22.745 27.526 21.2498 26.5351 20.5228 25.0911H20.5225L18.3323 21.1588H18.3321C18.2214 20.9631 18.0115 20.8312 17.7708 20.8312C17.53 20.8312 17.3202 20.9631 17.2095 21.1588H17.207L13.809 27.2313H13.8085C13.0471 28.5919 11.5921 29.5118 9.92202 29.5118C8.25209 29.5118 6.79729 28.5919 6.0359 27.2313H6.03128L3.95626 25.4449L3.95638 25.4449Z" fill="#006C55"/>
<path d="M32.3522 8.1184C34.4592 8.1184 36.1672 6.41034 36.1672 4.30334C36.1672 2.19634 34.4592 0.488281 32.3522 0.488281C30.2452 0.488281 28.5371 2.19634 28.5371 4.30334C28.5371 6.41034 30.2452 8.1184 32.3522 8.1184Z" fill="#006C55"/>
<path d="M17.8072 15.1809C19.9142 15.1809 21.6223 13.4728 21.6223 11.3658C21.6223 9.25884 19.9142 7.55078 17.8072 7.55078C15.7002 7.55078 13.9922 9.25884 13.9922 11.3658C13.9922 13.4728 15.7002 15.1809 17.8072 15.1809Z" fill="#006C55"/>
<path d="M60.9405 15.3457C60.5965 15.3457 60.2727 15.5076 60.1107 15.7707L56.893 22.1861L55.618 19.6564L57.0144 16.8635C57.0144 16.8635 57.156 16.56 57.156 16.3373C57.156 15.8112 56.6906 15.3457 56.1441 15.3457C55.7799 15.3457 55.4763 15.5076 55.2941 15.7707L54.4846 17.3897L53.6751 15.7707C53.493 15.5076 53.1894 15.3457 52.8656 15.3457C52.299 15.3457 51.8335 15.8112 51.8335 16.3373C51.8335 16.6409 51.9549 16.8635 53.3716 19.6564L52.0966 22.2063L48.8585 15.7707C48.6764 15.5076 48.3728 15.3457 48.0692 15.3457C47.5026 15.3457 47.0371 15.8112 47.0371 16.3373C47.0371 16.7826 47.199 16.9849 51.1454 24.7765C51.3478 25.161 51.6715 25.4645 52.0966 25.4645C52.4811 25.4645 52.8453 25.2419 53.0073 24.8979L54.5048 21.9027C54.9096 22.7324 55.3953 23.6634 55.9417 24.7765C56.1441 25.161 56.4679 25.4645 56.8929 25.4645C57.2977 25.4645 57.6417 25.2419 57.8036 24.8979L61.8309 16.8635C61.8309 16.8635 61.9524 16.56 61.9524 16.3373C61.9524 15.8112 61.5071 15.3457 60.9405 15.3457H60.9405ZM66.5059 15.3457C62.6607 15.3457 59.9691 19.9802 62.6202 23.5252C64.6036 26.1763 68.0237 25.893 69.9665 23.9502C70.3915 23.5657 70.3915 22.9383 69.9665 22.5302C69.6022 22.1659 68.9749 22.1659 68.5904 22.5302C68.0237 23.1204 67.2952 23.4038 66.5059 23.424C65.1297 23.4645 63.9964 22.4897 63.6523 21.2552H70.5737C71.1201 21.2552 71.4034 20.9112 71.4236 20.4457C71.5248 17.6731 69.2582 15.3458 66.5059 15.3458V15.3457ZM66.5059 17.3088C67.8011 17.3088 68.8939 18.1588 69.2987 19.2921H63.6928C64.0976 18.1588 65.1904 17.3088 66.5059 17.3088ZM77.0902 15.3457C75.9569 15.3457 74.9046 15.7302 74.0546 16.3576V16.3373C74.0546 15.8112 73.6094 15.3457 73.0629 15.3457C72.4963 15.3457 72.0308 15.8112 72.0308 16.3373V24.4325C72.0308 24.9991 72.4963 25.4646 73.0629 25.4646C73.6094 25.4646 74.0546 24.9991 74.0546 24.4325V20.4051C74.0546 18.7456 75.4307 17.3695 77.0902 17.3695C78.7497 17.3695 80.1259 18.7456 80.1259 20.4051V24.4325C80.1259 24.9991 80.5914 25.4646 81.158 25.4646C81.7044 25.4646 82.1496 24.9991 82.1496 24.4325V20.4051C82.1496 17.6123 79.883 15.3457 77.0902 15.3457V15.3457ZM87.796 15.3457C85.0234 15.3457 82.7568 17.6123 82.7568 20.3849C82.7568 23.1777 85.0234 25.4646 87.796 25.4646C88.9292 25.4646 89.9816 25.0801 90.8316 24.4527C90.8316 24.9991 91.2971 25.4646 91.8637 25.4646C92.4102 25.4646 92.8756 24.9991 92.8756 24.4325V20.3849C92.8756 17.6123 90.5888 15.3457 87.796 15.3457ZM87.796 23.4206C86.1364 23.4206 84.7805 22.0646 84.7805 20.3849C84.7805 18.7254 86.1364 17.3695 87.796 17.3695C89.4757 17.3695 90.8316 18.7254 90.8316 20.3849C90.8316 22.0646 89.4757 23.4206 87.796 23.4206ZM94.8994 14.9207C95.5268 14.9207 96.0125 14.4148 96.0125 13.8076C96.0125 13.2005 95.5268 12.7148 94.8994 12.7148C94.272 12.7148 93.7863 13.2005 93.7863 13.8076C93.7863 14.4148 94.272 14.9207 94.8994 14.9207ZM94.8994 25.4646C95.466 25.4646 95.9315 24.9991 95.9315 24.4325V16.3373C95.9315 15.7707 95.466 15.3052 94.8994 15.3052C94.3125 15.3052 93.8875 15.7707 93.8875 16.3373V24.4325C93.8875 24.9991 94.3125 25.4646 94.8994 25.4646ZM94.1101 29.5121C96.7613 29.5121 98.9065 27.3467 98.9065 24.6956V16.3373C98.9065 15.7909 98.4815 15.3457 97.9148 15.3457C97.3887 15.3457 96.9434 15.791 96.9434 16.3373V24.6956C96.9434 26.2741 95.6684 27.5491 94.1101 27.5491C93.5637 27.5491 93.1185 27.9944 93.1185 28.5205C93.1185 29.0872 93.5638 29.5121 94.1101 29.5121ZM104.694 15.3457C101.922 15.3457 99.6553 17.6123 99.6553 20.3849C99.6553 23.1777 101.922 25.4646 104.694 25.4646C105.828 25.4646 106.88 25.0801 107.73 24.4527C107.73 24.9991 108.196 25.4646 108.762 25.4646C109.309 25.4646 109.774 24.9991 109.774 24.4325V20.3849C109.774 17.6123 107.487 15.3457 104.694 15.3457ZM104.694 23.4206C103.035 23.4206 101.679 22.0646 101.679 20.3849C101.679 18.7254 103.035 17.3695 104.694 17.3695C106.374 17.3695 107.73 18.7254 107.73 20.3849C107.73 22.0646 106.374 23.4206 104.694 23.4206Z" fill="#006C55"/>
</svg>
